<svg width="116" height="46" viewBox="0 0 116 46" fill="none" xmlns="http://www.w3.org/2000/svg">
<path d="M15.8199 12.5H19.9569V33.0882H15.9655V19.7353L10.2261 29.2941H9.75996L4.02052 19.7647V33.0882H0V12.5H4.13706L9.99303 22.2353L15.8199 12.5ZM35.9933 31.2647C34.5171 32.7549 32.6914 33.5 30.5161 33.5C28.3407 33.5 26.5149 32.7549 25.0388 31.2647C23.5627 29.7745 22.8246 27.9314 22.8246 25.7353C22.8246 23.5588 23.5627 21.7255 25.0388 20.2353C26.5343 18.7255 28.3601 17.9706 30.5161 17.9706C32.672 17.9706 34.4977 18.7255 35.9933 20.2353C37.4888 21.7451 38.2366 23.5784 38.2366 25.7353C38.2366 27.9118 37.4888 29.7549 35.9933 31.2647ZM27.69 28.6471C28.4475 29.4118 29.3895 29.7941 30.5161 29.7941C31.6426 29.7941 32.5846 29.4118 33.3421 28.6471C34.0996 27.8824 34.4783 26.9118 34.4783 25.7353C34.4783 24.5588 34.0996 23.5882 33.3421 22.8235C32.5846 22.0588 31.6426 21.6765 30.5161 21.6765C29.3895 21.6765 28.4475 22.0588 27.69 22.8235C26.952 23.6078 26.5829 24.5784 26.5829 25.7353C26.5829 26.8922 26.952 27.8628 27.69 28.6471ZM48.9799 17.9706C50.5919 17.9706 51.9031 18.5098 52.9129 19.5882C53.9618 20.6863 54.4862 22.1765 54.4862 24.0588V33.0882H50.7279V24.5294C50.7279 23.5686 50.4657 22.8235 49.9413 22.2941C49.4363 21.7647 48.7371 21.5 47.8436 21.5C46.8531 21.5 46.0664 21.8137 45.4838 22.4412C44.9205 23.049 44.6389 23.951 44.6389 25.1471V33.0882H40.8806V18.3824H44.6389V20.0294C45.5323 18.6569 46.9793 17.9706 48.9799 17.9706ZM71.8543 27.2941H60.8707C61.3566 29.1372 62.726 30.0588 64.9787 30.0588C66.4161 30.0588 67.504 29.5686 68.2417 28.5882L71.2716 30.3529C69.8347 32.451 67.7173 33.5 64.9204 33.5C62.5121 33.5 60.5794 32.7647 59.1227 31.2941C57.666 29.8235 56.9376 27.9706 56.9376 25.7353C56.9376 23.5392 57.6566 21.6961 59.0935 20.2059C60.5118 18.7157 62.3566 17.9706 64.629 17.9706C66.785 17.9706 68.5429 18.7157 69.9023 20.2059C71.3008 21.6961 72 23.5392 72 25.7353C72 26.1471 71.9516 26.6666 71.8543 27.2941ZM60.8125 24.3529H68.2417C68.0284 23.3922 67.5914 22.6569 66.9306 22.1471C66.2897 21.6372 65.5228 21.3824 64.629 21.3824C63.6192 21.3824 62.7842 21.6471 62.1235 22.1765C61.4633 22.6863 61.0263 23.4118 60.8125 24.3529Z" fill="#0C091D"/>
<path d="M85.3508 12.5H89.8784L82.9128 25.0588V33.0882H78.9366V25.0588L72 12.5H76.5276L80.9392 21.0882L85.3508 12.5ZM102.866 27.2941H91.924C92.4081 29.1372 93.7722 30.0588 96.0164 30.0588C97.4483 30.0588 98.5321 29.5686 99.267 28.5882L102.285 30.3529C100.854 32.451 98.7446 33.5 95.9583 33.5C93.5592 33.5 91.6338 32.7647 90.1826 31.2941C88.7315 29.8235 88.0059 27.9706 88.0059 25.7353C88.0059 23.5392 88.7221 21.6961 90.1536 20.2059C91.5664 18.7157 93.4042 17.9706 95.6681 17.9706C97.8158 17.9706 99.567 18.7157 100.921 20.2059C102.314 21.6961 103.011 23.5392 103.011 25.7353C103.011 26.1471 102.963 26.6666 102.866 27.2941ZM91.866 24.3529H99.267C99.0545 23.3922 98.6191 22.6569 97.9609 22.1471C97.3224 21.6372 96.5585 21.3824 95.6681 21.3824C94.6621 21.3824 93.8303 21.6471 93.1721 22.1765C92.5144 22.6863 92.079 23.4118 91.866 24.3529ZM108.512 22.5588C108.512 23.1863 109.392 23.7255 111.153 24.1765C111.772 24.3137 112.333 24.4804 112.836 24.6765C113.339 24.8529 113.842 25.1176 114.346 25.4706C114.868 25.8039 115.274 26.2549 115.565 26.8235C115.855 27.3922 116 28.049 116 28.7941C116 30.3039 115.439 31.4706 114.317 32.2941C113.194 33.0981 111.811 33.5 110.166 33.5C107.186 33.5 105.155 32.3334 104.071 30L107.322 28.1471C107.767 29.4216 108.715 30.0588 110.166 30.0588C111.501 30.0588 112.169 29.6372 112.169 28.7941C112.169 28.1666 111.288 27.6275 109.528 27.1765C108.87 27 108.309 26.8235 107.844 26.6471C107.38 26.4706 106.877 26.2157 106.335 25.8824C105.793 25.5294 105.377 25.0882 105.087 24.5588C104.816 24.0098 104.681 23.3725 104.681 22.6471C104.681 21.1961 105.203 20.0588 106.248 19.2353C107.312 18.3922 108.628 17.9706 110.195 17.9706C111.375 17.9706 112.449 18.2451 113.417 18.7941C114.384 19.3235 115.148 20.0882 115.71 21.0882L112.517 22.8529C112.053 21.8529 111.279 21.3529 110.195 21.3529C109.711 21.3529 109.305 21.4706 108.976 21.7059C108.666 21.9216 108.512 22.2059 108.512 22.5588Z" fill="#1229FE"/>
</svg>
