<svg width="154" height="82" viewBox="0 0 154 82" fill="none" xmlns="http://www.w3.org/2000/svg">
<path d="M77.3111 38.8465L71.0103 47.8471H77.5815V50.6633H67.0352V48.6754L73.363 39.6748H67.3056V36.8586H77.3111V38.8465ZM90.1931 38.8189V36.8586H93.1137V50.6633H90.1931V48.6754C89.0936 50.2399 87.516 51.0222 85.4608 51.0222C83.6041 51.0222 82.0178 50.3228 80.7014 48.9239C79.3856 47.525 78.7274 45.804 78.7274 43.7609C78.7274 41.7179 79.3856 39.9968 80.7014 38.598C82.0178 37.1991 83.6041 36.4997 85.4608 36.4997C87.516 36.4997 89.0936 37.2727 90.1931 38.8189ZM82.8648 46.936C83.676 47.7643 84.6949 48.1785 85.9205 48.1785C87.1466 48.1785 88.165 47.7643 88.9762 46.936C89.7875 46.0894 90.1931 45.031 90.1931 43.7609C90.1931 42.4909 89.7875 41.4418 88.9762 40.6135C88.165 39.7668 87.1466 39.3434 85.9205 39.3434C84.6949 39.3434 83.676 39.7668 82.8648 40.6135C82.0535 41.4418 81.6479 42.4909 81.6479 43.7609C81.6479 45.0126 82.0535 46.0709 82.8648 46.936ZM99.2763 34.2357C98.9156 34.6038 98.4829 34.7879 97.9783 34.7879C97.4732 34.7879 97.0318 34.6038 96.6532 34.2357C96.2925 33.8492 96.1124 33.3982 96.1124 32.8828C96.1124 32.3675 96.2925 31.9257 96.6532 31.5576C97.0135 31.171 97.4553 30.9778 97.9783 30.9778C98.5008 30.9778 98.9426 31.171 99.3033 31.5576C99.6636 31.9257 99.8442 32.3675 99.8442 32.8828C99.8442 33.3982 99.6549 33.8492 99.2763 34.2357ZM99.4386 50.6633H96.518V36.8586H99.4386V50.6633ZM117.594 36.4997C119.126 36.4997 120.362 37.0059 121.299 38.0182C122.236 39.0305 122.705 40.3926 122.705 42.1044V50.6633H119.785V42.2976C119.785 41.3589 119.55 40.6227 119.082 40.0889C118.613 39.5551 117.973 39.2882 117.162 39.2882C116.242 39.2882 115.521 39.6011 114.998 40.2269C114.475 40.8343 114.214 41.7362 114.214 42.9327V50.6633H111.294V42.2976C111.294 41.3405 111.068 40.6043 110.617 40.0889C110.185 39.5551 109.563 39.2882 108.752 39.2882C107.85 39.2882 107.12 39.6011 106.561 40.2269C106.02 40.8527 105.75 41.7547 105.75 42.9327V50.6633H102.829V36.8586H105.75V38.5152C106.615 37.1715 107.904 36.4997 109.617 36.4997C111.348 36.4997 112.628 37.2267 113.457 38.6808C114.34 37.2267 115.719 36.4997 117.594 36.4997ZM127.589 46.8532C128.147 46.8532 128.625 47.0557 129.022 47.4606C129.418 47.8655 129.617 48.3533 129.617 48.9239C129.617 49.4945 129.418 49.9823 129.022 50.3872C128.625 50.7921 128.147 50.9946 127.589 50.9946C127.03 50.9946 126.552 50.7921 126.155 50.3872C125.759 49.9823 125.561 49.4945 125.561 48.9239C125.561 48.3533 125.75 47.8655 126.128 47.4606C126.525 47.0557 127.012 46.8532 127.589 46.8532ZM135.644 36.8586V39.1778C136.383 37.466 137.771 36.6101 139.808 36.6101V39.8404C138.709 39.7668 137.735 40.0429 136.888 40.6687C136.059 41.2761 135.644 42.2884 135.644 43.7057V50.6633H132.723V36.8586H135.644ZM151.079 44.2579V36.8586H154V50.6633H151.079V48.8963C150.178 50.3136 148.781 51.0222 146.888 51.0222C145.319 51.0222 144.058 50.516 143.102 49.5037C142.165 48.4729 141.696 47.0833 141.696 45.3347V36.8586H144.616V45.031C144.616 46.0617 144.887 46.8532 145.428 47.4054C145.968 47.9576 146.708 48.2337 147.645 48.2337C148.709 48.2337 149.547 47.9024 150.16 47.2397C150.773 46.5587 151.079 45.5648 151.079 44.2579Z" fill="#313132"/>
<rect width="42.3985" height="42.3985" rx="4" transform="matrix(0.705069 0.709139 -0.705069 0.709139 29.8945 0)" fill="#666666"/>
<rect width="42.3985" height="42.3985" rx="4" transform="matrix(0.705069 0.709139 -0.705069 0.709139 29.8945 21.8671)" fill="#1229FE"/>
<path d="M18.9023 21.8667H33.2116C36.8721 21.8667 39.9225 23.0694 42.3628 25.4747C44.8401 27.88 46.0788 30.8684 46.0788 34.44C46.0788 37.9751 44.8401 40.9636 42.3628 43.4054C39.9225 45.8107 36.8721 47.0134 33.2116 47.0134H25.2805V60.1334H18.9023V21.8667ZM25.2805 41.1094H33.2116C35.0973 41.1094 36.6502 40.4898 37.8704 39.2507C39.0906 37.9751 39.7007 36.3716 39.7007 34.44C39.7007 32.5084 39.0906 30.9231 37.8704 29.684C36.6502 28.4085 35.0973 27.7707 33.2116 27.7707H25.2805V41.1094Z" fill="white"/>
</svg>
