<svg width="48" height="48" viewBox="0 0 48 48" fill="none" xmlns="http://www.w3.org/2000/svg">
<path d="M18 23L22 27L31 18M40 24C40 33.8169 29.2921 40.9568 25.396 43.2297C24.9532 43.4881 24.7318 43.6172 24.4194 43.6842C24.1769 43.7362 23.8231 43.7362 23.5806 43.6842C23.2682 43.6172 23.0468 43.4881 22.604 43.2297C18.7079 40.9568 8 33.8169 8 24V14.4352C8 12.8362 8 12.0367 8.26152 11.3494C8.49255 10.7423 8.86797 10.2005 9.35532 9.77105C9.90699 9.28486 10.6556 9.00414 12.1528 8.44268L22.8764 4.42133C23.2922 4.26541 23.5001 4.18745 23.714 4.15655C23.9037 4.12913 24.0963 4.12913 24.286 4.15655C24.4999 4.18745 24.7078 4.26541 25.1236 4.42133L35.8472 8.44268C37.3444 9.00414 38.093 9.28486 38.6447 9.77105C39.132 10.2005 39.5075 10.7423 39.7385 11.3494C40 12.0367 40 12.8362 40 14.4352V24Z" stroke="url(#paint0_linear_52_10619)" stroke-width="3.5" stroke-linecap="round" stroke-linejoin="round"/>
<defs>
<linearGradient id="paint0_linear_52_10619" x1="8" y1="23.5941" x2="40" y2="23.5941" gradientUnits="userSpaceOnUse">
<stop stop-color="#1229FE"/>
<stop offset="1" stop-color="#0085FF"/>
</linearGradient>
</defs>
</svg>
