<svg width="85" height="46" viewBox="0 0 85 46" fill="none" xmlns="http://www.w3.org/2000/svg">
<path d="M42.6718 21.8182L39.1941 26.7576H42.821V28.303H37V27.2121L40.4926 22.2727H37.1493V20.7273H42.6718V21.8182ZM49.782 21.803V20.7273H51.394V28.303H49.782V27.2121C49.1751 28.0707 48.3044 28.5 47.17 28.5C46.1452 28.5 45.2696 28.1162 44.5431 27.3485C43.8168 26.5808 43.4535 25.6364 43.4535 24.5152C43.4535 23.3939 43.8168 22.4495 44.5431 21.6818C45.2696 20.9142 46.1452 20.5303 47.17 20.5303C48.3044 20.5303 49.1751 20.9545 49.782 21.803ZM45.7371 26.2576C46.1849 26.7121 46.7473 26.9394 47.4237 26.9394C48.1005 26.9394 48.6626 26.7121 49.1103 26.2576C49.5581 25.7929 49.782 25.2121 49.782 24.5152C49.782 23.8182 49.5581 23.2424 49.1103 22.7879C48.6626 22.3232 48.1005 22.0909 47.4237 22.0909C46.7473 22.0909 46.1849 22.3232 45.7371 22.7879C45.2894 23.2424 45.0655 23.8182 45.0655 24.5152C45.0655 25.202 45.2894 25.7828 45.7371 26.2576ZM54.7954 19.2879C54.5963 19.4899 54.3575 19.5909 54.079 19.5909C53.8002 19.5909 53.5566 19.4899 53.3476 19.2879C53.1485 19.0758 53.0491 18.8283 53.0491 18.5455C53.0491 18.2626 53.1485 18.0202 53.3476 17.8182C53.5465 17.6061 53.7904 17.5 54.079 17.5C54.3674 17.5 54.6113 17.6061 54.8104 17.8182C55.0092 18.0202 55.1089 18.2626 55.1089 18.5455C55.1089 18.8283 55.0044 19.0758 54.7954 19.2879ZM54.885 28.303H53.273V20.7273H54.885V28.303ZM64.906 20.5303C65.7517 20.5303 66.4335 20.8081 66.9508 21.3636C67.4682 21.9192 67.727 22.6667 67.727 23.6061V28.303H66.115V23.7121C66.115 23.197 65.9857 22.7929 65.7269 22.5C65.4681 22.2071 65.115 22.0606 64.6672 22.0606C64.1597 22.0606 63.7618 22.2323 63.4731 22.5758C63.1845 22.9091 63.0403 23.404 63.0403 24.0606V28.303H61.4283V23.7121C61.4283 23.1869 61.3039 22.7828 61.0552 22.5C60.8164 22.2071 60.4731 22.0606 60.0253 22.0606C59.5277 22.0606 59.1247 22.2323 58.8163 22.5758C58.5178 22.9192 58.3685 23.4142 58.3685 24.0606V28.303H56.7566V20.7273H58.3685V21.6364C58.8462 20.899 59.5575 20.5303 60.5029 20.5303C61.4582 20.5303 62.1647 20.9293 62.6224 21.7273C63.1099 20.9293 63.8711 20.5303 64.906 20.5303ZM70.4224 26.2121C70.7308 26.2121 70.9946 26.3232 71.2135 26.5455C71.4323 26.7677 71.5418 27.0354 71.5418 27.3485C71.5418 27.6616 71.4323 27.9293 71.2135 28.1515C70.9946 28.3737 70.7308 28.4848 70.4224 28.4848C70.114 28.4848 69.8501 28.3737 69.6313 28.1515C69.4125 27.9293 69.303 27.6616 69.303 27.3485C69.303 27.0354 69.4074 26.7677 69.6164 26.5455C69.8352 26.3232 70.1039 26.2121 70.4224 26.2121ZM74.8684 20.7273V22C75.2764 21.0606 76.0427 20.5909 77.1669 20.5909V22.3636C76.56 22.3232 76.0227 22.4748 75.555 22.8182C75.0973 23.1515 74.8684 23.7071 74.8684 24.4848V28.303H73.2564V20.7273H74.8684ZM83.388 24.7879V20.7273H85V28.303H83.388V27.3333C82.8904 28.1111 82.1193 28.5 81.0745 28.5C80.2089 28.5 79.5124 28.2222 78.9849 27.6667C78.4676 27.101 78.2088 26.3384 78.2088 25.3788V20.7273H79.8208V25.2121C79.8208 25.7778 79.97 26.2121 80.2686 26.5152C80.5671 26.8182 80.9751 26.9697 81.4925 26.9697C82.0796 26.9697 82.5423 26.7879 82.8806 26.4242C83.2188 26.0505 83.388 25.5051 83.388 24.7879Z" fill="#313132"/>
<rect x="16.5" y="0.5" width="23.3343" height="23.3343" rx="4" transform="rotate(45 16.5 0.5)" fill="#666666"/>
<rect x="16.5" y="12.5002" width="23.3343" height="23.3343" rx="4" transform="rotate(45 16.5 12.5002)" fill="#1229FE"/>
<path d="M10.4336 12.5H18.3316C20.352 12.5 22.0356 13.16 23.3826 14.48C24.7499 15.8 25.4336 17.44 25.4336 19.4C25.4336 21.34 24.7499 22.98 23.3826 24.32C22.0356 25.64 20.352 26.3 18.3316 26.3H13.954V33.5H10.4336V12.5ZM13.954 23.06H18.3316C19.3724 23.06 20.2295 22.72 20.903 22.04C21.5765 21.34 21.9132 20.46 21.9132 19.4C21.9132 18.34 21.5765 17.47 20.903 16.79C20.2295 16.09 19.3724 15.74 18.3316 15.74H13.954V23.06Z" fill="white"/>
</svg>
